<?xml version="1.0" encoding="UTF-8" standalone="no"?>
<!-- Created with Inkscape (http://www.inkscape.org/) -->

<svg
   xmlns:dc="http://purl.org/dc/elements/1.1/"
   xmlns:cc="http://creativecommons.org/ns#"
   xmlns:rdf="http://www.w3.org/1999/02/22-rdf-syntax-ns#"
   xmlns:svg="http://www.w3.org/2000/svg"
   xmlns="http://www.w3.org/2000/svg"
   xmlns:sodipodi="http://sodipodi.sourceforge.net/DTD/sodipodi-0.dtd"
   xmlns:inkscape="http://www.inkscape.org/namespaces/inkscape"
   width="128"
   height="128"
   id="svg2"
   version="1.1"
   inkscape:version="0.48.4 r9939"
   sodipodi:docname="basilisk2.svg"
   inkscape:export-filename="/home/kaname/Projects/trem-gpp-bots/assets-data/emoticons/advbasilisk_1x1.tga.png"
   inkscape:export-xdpi="45"
   inkscape:export-ydpi="45">
  <defs
     id="defs4" />
  <sodipodi:namedview
     id="base"
     pagecolor="#ffffff"
     bordercolor="#666666"
     borderopacity="1.0"
     inkscape:pageopacity="0.0"
     inkscape:pageshadow="2"
     inkscape:zoom="1"
     inkscape:cx="68.297048"
     inkscape:cy="52"
     inkscape:document-units="px"
     inkscape:current-layer="layer2"
     showgrid="false"
     fit-margin-top="0"
     fit-margin-left="0"
     fit-margin-right="0"
     fit-margin-bottom="0"
     inkscape:window-width="1366"
     inkscape:window-height="721"
     inkscape:window-x="1280"
     inkscape:window-y="25"
     inkscape:window-maximized="1" />
  <metadata
     id="metadata7">
    <rdf:RDF>
      <cc:Work
         rdf:about="">
        <dc:format>image/svg+xml</dc:format>
        <dc:type
           rdf:resource="http://purl.org/dc/dcmitype/StillImage" />
        <dc:title></dc:title>
      </cc:Work>
    </rdf:RDF>
  </metadata>
  <g
     inkscape:label="Layer 1"
     inkscape:groupmode="layer"
     id="layer1"
     transform="translate(-269.14099,-423.38622)"
     style="display:none">
    <path
       style="fill:#090909"
       d="m 269.14099,487.38622 0,-64 64,0 64,0 0,64 0,64 -64,0 -64,0 z m 107.70614,33.23236 c 0.71289,-16.40759 1.48408,-2.23236 2.39486,-2.23236 2.76978,0 8.899,-22.46728 8.899,-32.62019 0,-6.20643 -1.83458,-6.3394 -19.00771,-1.37758 -14.22104,4.10887 -14.34438,4.1254 -16.84606,2.25763 -3.47444,-2.59405 -3.61205,-3.70319 -0.59688,-4.81084 1.79177,-0.65823 5.10023,-4.93235 10.79749,-13.94902 4.51779,-7.15 8.65044,-13 9.18366,-13 0.53323,0 1.20331,2.475 1.48907,5.5 l 0.51956,5.5 1.73044,-3.87212 c 2.24335,-5.01987 2.38972,-16.83583 0.23075,-18.62762 -2.60873,-2.16504 -5.26835,0.78961 -14.36758,15.96137 -4.74801,7.91668 -9.35059,14.83022 -10.22796,15.36342 -2.62523,1.59542 -6.90478,-0.0165 -6.90478,-2.60075 0,-2.83186 -5.51779,-19.78603 -6.7073,-20.60911 -0.48898,-0.33836 -1.91052,-2.07769 -3.15897,-3.86519 -1.24846,-1.7875 -2.69562,-3.25 -3.21592,-3.25 -0.5203,0 -2.26776,1.4625 -3.88325,3.25 -3.17288,3.51073 -4.47882,8.06932 -5.59026,19.51372 -0.76946,7.92309 -1.64628,8.79911 -8.07177,8.06436 -2.52427,-0.28865 -3.83089,-1.96775 -10.87083,-13.96981 -4.40094,-7.50295 -8.63732,-14.38716 -9.4142,-15.29825 -4.65691,-5.46149 -11.5852,6.64304 -9.66396,16.8841 0.77236,4.11702 2.57646,4.78715 2.57646,0.95701 0,-3.70299 2.99307,-9.55321 4.70596,-9.19821 0.78836,0.16339 5.11454,6.37208 9.61372,13.79708 7.30163,12.0499 8.50256,13.53512 11.18032,13.82695 1.65,0.17982 3.36959,0.68441 3.82132,1.12132 0.97076,0.93891 -3.94459,5.05173 -6.03747,5.05173 -0.79554,0 -6.69735,-1.59371 -13.11514,-3.54157 -6.49819,-1.97227 -12.66571,-3.29316 -13.91871,-2.98095 -2.03317,0.5066 -2.24963,1.16109 -2.24619,6.79157 0.005,8.28258 2.39942,22.67625 4.42317,26.58974 0.89341,1.72766 1.78082,3.14121 1.97202,3.14121 0.19121,0 0.11725,-6.03785 -0.16434,-13.41746 -0.28159,-7.37959 -0.24712,-14.10769 0.0766,-14.95133 0.51681,-1.34679 1.33545,-1.28166 6.71171,0.53393 l 6.1231,2.0678 -3.07304,1.86883 -3.07304,1.86883 0.0451,14.7647 c 0.0299,9.77877 0.48231,15.77778 1.33979,17.7647 l 1.29469,3 0.64092,-5.5 c 0.35251,-3.025 0.93714,-9.8996 1.29919,-15.27688 0.36205,-5.37728 1.03575,-10.01018 1.49713,-10.29532 0.46137,-0.28514 3.1805,0.17695 6.04252,1.02688 8.43069,2.50364 9.80022,2.16174 15.84066,-3.95468 2.98742,-3.025 5.97226,-5.5 6.63298,-5.5 1.4815,0 3.00613,6.83636 5.0179,22.5 0.84767,6.6 1.88764,12.36714 2.31104,12.81586 0.42339,0.44873 1.06258,-3.37627 1.42041,-8.5 1.28005,-18.32859 1.83838,-23.55495 2.65807,-24.88123 0.62725,-1.01491 2.18468,-0.0661 6.33579,3.85983 6.05209,5.72381 6.88955,5.91524 16.12381,3.68554 11.3314,-2.73608 10.49525,-3.90871 10.5318,14.77 0.0288,14.71934 0.17419,16.06161 1.54343,14.25 0.8314,-1.1 3.06987,-8.86251 3.13092,-10.26764 z m 0.60081,-13.67624 c 0.74862,-13.39136 0.39074,-13.96557 -8.14919,-13.0753 -4.25064,0.44311 -6.29621,0.34786 -5.65776,-0.26345 1.732,-1.6584 16.86276,-6.25461 17.73122,-5.38615 1.13541,1.13541 -1.89418,30.75597 -3.32837,32.09743 -0.86633,0.81032 -1.01402,-5.89315 -0.5959,-13.37253 z"
       id="path2998"
       inkscape:connector-curvature="0"
       sodipodi:nodetypes="cccccccccssssssssscssssscsssssssssssssssssssscscccsscssssssscsssssssssssss" />
    <path
       sodipodi:type="arc"
       style="color:#000000;fill:#ffffff;fill-opacity:1;fill-rule:nonzero;stroke:#000000;stroke-width:3;stroke-linecap:butt;stroke-linejoin:miter;stroke-miterlimit:4;stroke-opacity:1;stroke-dasharray:none;stroke-dashoffset:0;marker:none;visibility:visible;display:inline;overflow:visible;enable-background:accumulate"
       id="path3022"
       sodipodi:cx="226.96448"
       sodipodi:cy="472.28772"
       sodipodi:rx="6.3316269"
       sodipodi:ry="6.3316269"
       d="m 233.2961,472.28772 a 6.3316269,6.3316269 0 1 1 -12.66325,0 6.3316269,6.3316269 0 1 1 12.66325,0 z"
       transform="translate(63.803319,-20.943074)" />
    <path
       sodipodi:type="arc"
       style="color:#000000;fill:#ffffff;fill-opacity:1;fill-rule:nonzero;stroke:#000000;stroke-width:3;stroke-linecap:butt;stroke-linejoin:miter;stroke-miterlimit:4;stroke-opacity:1;stroke-dasharray:none;stroke-dashoffset:0;marker:none;visibility:visible;display:inline;overflow:visible;enable-background:accumulate"
       id="path3022-1"
       sodipodi:cx="226.96448"
       sodipodi:cy="472.28772"
       sodipodi:rx="6.3316269"
       sodipodi:ry="6.3316269"
       d="m 233.2961,472.28772 a 6.3316269,6.3316269 0 1 1 -12.66325,0 6.3316269,6.3316269 0 1 1 12.66325,0 z"
       transform="translate(145.67923,-24.352402)" />
    <path
       sodipodi:type="arc"
       style="color:#000000;fill:#ffffff;fill-opacity:1;fill-rule:nonzero;stroke:#000000;stroke-width:3;stroke-linecap:butt;stroke-linejoin:miter;stroke-miterlimit:4;stroke-opacity:1;stroke-dasharray:none;stroke-dashoffset:0;marker:none;visibility:visible;display:inline;overflow:visible;enable-background:accumulate"
       id="path3022-2"
       sodipodi:cx="226.96448"
       sodipodi:cy="472.28772"
       sodipodi:rx="6.3316269"
       sodipodi:ry="6.3316269"
       d="m 233.2961,472.28772 a 6.3316269,6.3316269 0 1 1 -12.66325,0 6.3316269,6.3316269 0 1 1 12.66325,0 z"
       transform="translate(145.62742,26.787661)" />
    <path
       sodipodi:type="arc"
       style="color:#000000;fill:#ffffff;fill-opacity:1;fill-rule:nonzero;stroke:#000000;stroke-width:3;stroke-linecap:butt;stroke-linejoin:miter;stroke-miterlimit:4;stroke-opacity:1;stroke-dasharray:none;stroke-dashoffset:0;marker:none;visibility:visible;display:inline;overflow:visible;enable-background:accumulate"
       id="path3022-3"
       sodipodi:cx="226.96448"
       sodipodi:cy="472.28772"
       sodipodi:rx="6.3316269"
       sodipodi:ry="6.3316269"
       d="m 233.2961,472.28772 a 6.3316269,6.3316269 0 1 1 -12.66325,0 6.3316269,6.3316269 0 1 1 12.66325,0 z"
       transform="translate(156.82954,13.150315)" />
    <path
       sodipodi:type="arc"
       style="color:#000000;fill:#ffffff;fill-opacity:1;fill-rule:nonzero;stroke:#000000;stroke-width:3;stroke-linecap:butt;stroke-linejoin:miter;stroke-miterlimit:4;stroke-opacity:1;stroke-dasharray:none;stroke-dashoffset:0;marker:none;visibility:visible;display:inline;overflow:visible;enable-background:accumulate"
       id="path3022-7"
       sodipodi:cx="226.96448"
       sodipodi:cy="472.28772"
       sodipodi:rx="6.3316269"
       sodipodi:ry="6.3316269"
       d="m 233.2961,472.28772 a 6.3316269,6.3316269 0 1 1 -12.66325,0 6.3316269,6.3316269 0 1 1 12.66325,0 z"
       transform="translate(71.109042,27.27471)" />
    <path
       sodipodi:type="arc"
       style="color:#000000;fill:#ffffff;fill-opacity:1;fill-rule:nonzero;stroke:#000000;stroke-width:3;stroke-linecap:butt;stroke-linejoin:miter;stroke-miterlimit:4;stroke-opacity:1;stroke-dasharray:none;stroke-dashoffset:0;marker:none;visibility:visible;display:inline;overflow:visible;enable-background:accumulate"
       id="path3022-0"
       sodipodi:cx="226.96448"
       sodipodi:cy="472.28772"
       sodipodi:rx="6.3316269"
       sodipodi:ry="6.3316269"
       d="m 233.2961,472.28772 a 6.3316269,6.3316269 0 1 1 -12.66325,0 6.3316269,6.3316269 0 1 1 12.66325,0 z"
       transform="translate(56.01055,15.098505)" />
    <path
       sodipodi:type="arc"
       style="color:#000000;fill:#ffffff;fill-opacity:1;fill-rule:nonzero;stroke:#000000;stroke-width:3;stroke-linecap:butt;stroke-linejoin:miter;stroke-miterlimit:4;stroke-opacity:1;stroke-dasharray:none;stroke-dashoffset:0;marker:none;visibility:visible;display:inline;overflow:visible;enable-background:accumulate"
       id="path3022-28"
       sodipodi:cx="226.96448"
       sodipodi:cy="472.28772"
       sodipodi:rx="6.3316269"
       sodipodi:ry="6.3316269"
       d="m 233.2961,472.28772 a 6.3316269,6.3316269 0 1 1 -12.66325,0 6.3316269,6.3316269 0 1 1 12.66325,0 z"
       transform="translate(94.974409,-19.968965)" />
    <path
       sodipodi:type="arc"
       style="color:#000000;fill:#ffffff;fill-opacity:1;fill-rule:nonzero;stroke:#000000;stroke-width:3;stroke-linecap:butt;stroke-linejoin:miter;stroke-miterlimit:4;stroke-opacity:1;stroke-dasharray:none;stroke-dashoffset:0;marker:none;visibility:visible;display:inline;overflow:visible;enable-background:accumulate"
       id="path3022-77"
       sodipodi:cx="226.96448"
       sodipodi:cy="472.28772"
       sodipodi:rx="6.3316269"
       sodipodi:ry="6.3316269"
       d="m 233.2961,472.28772 a 6.3316269,6.3316269 0 1 1 -12.66325,0 6.3316269,6.3316269 0 1 1 12.66325,0 z"
       transform="translate(112.50815,-20.456019)" />
  </g>
  <g
     inkscape:groupmode="layer"
     id="layer2"
     inkscape:label="adv"
     style="display:inline">
    <rect
       style="color:#000000;fill:#000000;fill-opacity:1;fill-rule:nonzero;stroke:none;stroke-width:3;marker:none;visibility:visible;display:inline;overflow:visible;enable-background:accumulate"
       id="rect3095"
       width="128"
       height="128"
       x="0"
       y="0" />
    <g
       id="g3146"
       transform="matrix(0.84481753,-0.53505452,0.53505452,0.84481753,-23.389608,44.421658)">
      <path
         inkscape:connector-curvature="0"
         id="path3093"
         d="m 102.75645,107.9535 c -0.0386,-0.1025 -0.17956,-6.47556 -0.3132,-14.162355 -0.27948,-16.073807 -0.36108,-16.556263 -2.849228,-16.846744 -0.858295,-0.100199 -3.936515,0.397433 -7.771295,1.256328 -3.49252,0.782239 -6.8917,1.423556 -7.55374,1.425151 -2.12799,0.0051 -4.2601,-1.180414 -7.90508,-4.39555 -4.22225,-3.724336 -6.15205,-5.077672 -6.85557,-4.8077 -0.9134,0.350499 -1.38446,3.47535 -2.48478,16.483091 -1.19885,14.172539 -1.4665,16.575449 -1.84627,16.575449 -0.35308,0 -0.93768,-3.31162 -2.46023,-13.936825 -1.91493,-13.363404 -3.0827,-18.843291 -4.28887,-20.125983 -0.65226,-0.693643 -0.68599,-0.693173 -1.82099,0.02545 -0.63603,0.402703 -2.99037,2.445892 -5.23187,4.540415 -6.64189,6.206391 -7.51115,6.467023 -15.19378,4.555641 -6.3971,-1.591555 -6.62144,-1.624233 -7.10992,-1.035656 -0.50159,0.604386 -1.20178,6.468647 -2.32287,19.454821 -0.4424,5.124527 -0.93166,9.551397 -1.08725,9.837477 -0.47236,0.86853 -1.46596,-2.7949 -1.86149,-6.863374 -0.19888,-2.045716 -0.36592,-8.944552 -0.37121,-15.330745 l -0.01,-11.611258 2.98155,-1.747964 c 1.63985,-0.961378 2.98155,-1.869141 2.98155,-2.017245 0,-0.393367 -9.68756,-3.435581 -11.17699,-3.50994 -2.27888,-0.113776 -2.30821,0.105028 -2.0272,15.124049 0.13711,7.32809 0.13651,13.323801 -0.001,13.323801 -0.63494,0 -2.5647,-5.174469 -3.39931,-9.114915 -1.5705,-7.414805 -2.1378,-12.352796 -2.17802,-18.958199 -0.0353,-5.800822 0.016,-6.310313 0.68526,-6.801661 1.50641,-1.105957 4.90826,-0.505965 17.3398,3.058254 10.64673,3.052507 11.06498,3.11285 13.12877,1.894164 2.14987,-1.269511 4.1838,-3.420676 3.90969,-4.135022 -0.11905,-0.310238 -0.93787,-0.742585 -1.8196,-0.960767 -4.16219,-1.029912 -4.39323,-1.148529 -5.86572,-3.011361 -0.80245,-1.0152 -2.75109,-3.900945 -4.33028,-6.412766 -9.5408,-15.175334 -11.94168,-18.542962 -13.21984,-18.542962 -1.54193,0 -4.43625,5.852694 -4.45439,9.007341 -0.016,2.783494 -0.74327,3.300294 -1.60689,1.141879 -2.93581,-7.337309 1.88579,-20.970573 6.96563,-19.695613 1.33718,0.335611 2.48585,2.010162 10.36271,15.106999 3.75026,6.235547 7.59695,12.18917 8.5482,13.230272 l 1.72954,1.892914 3.16504,0.129981 c 5.47717,0.224937 5.4943,0.197531 6.96716,-11.148928 1.3316,-10.258169 2.62817,-13.83138 6.38031,-17.583523 1.78208,-1.782081 2.30496,-2.116077 2.85333,-1.822597 0.36928,0.197629 2.00937,2.058222 3.64465,4.13465 2.32271,2.949313 3.23995,4.4853 4.19228,7.02031 1.61587,4.30126 4.0469,12.339727 4.64063,15.344733 0.41114,2.080874 0.64893,2.52589 1.74248,3.261071 0.89757,0.603416 1.80734,0.851359 3.1239,0.851359 2.79407,0 2.89736,-0.136232 15.74586,-20.768682 5.751783,-9.236352 8.151643,-11.9796 10.060873,-11.500413 1.53488,0.385229 2.15522,2.177141 2.33315,6.739575 0.19467,4.991445 -0.54248,9.696661 -1.99712,12.747684 l -1.02987,2.160065 -0.30578,-2.795203 c -0.43682,-3.992982 -1.02298,-6.587318 -1.59575,-7.062667 -0.63041,-0.523193 -2.185624,1.564373 -10.120623,13.584808 -5.83683,8.842004 -8.73126,12.365049 -11.23838,13.67916 -0.73663,0.386103 -1.21126,0.920218 -1.21126,1.363064 0,1.01963 3.51121,4.077254 5.0036,4.357229 1.37827,0.258564 4.41939,-0.437758 16.798973,-3.846445 12.76538,-3.514915 14.77201,-3.729222 16.08956,-1.718375 2.11036,3.220808 -1.93249,24.773354 -6.26601,33.404296 -0.98176,1.955349 -1.81064,2.752344 -1.81064,1.740998 0,-0.221093 0.40708,-3.449552 0.90461,-7.174354 0.99096,-7.418841 1.85683,-18.212637 1.64948,-20.562031 -0.11143,-1.262522 -0.27423,-1.510904 -1.06331,-1.622239 -1.28941,-0.18193 -4.21867,0.502242 -9.69004,2.263242 -6.444623,2.074257 -8.479253,3.171747 -6.960513,3.754543 0.27134,0.10412 2.49352,0.03926 4.938191,-0.144132 6.773462,-0.50813 7.777902,-0.114771 8.294692,3.248369 0.32926,2.142717 -0.13626,18.384508 -0.65074,22.703838 -0.3817,3.204656 -2.2592,9.586473 -3.1778,10.801673 -0.30616,0.40502 -0.58824,0.65254 -0.62685,0.55005 l 0,0 z"
         style="color:#000000;fill:#ffffff;fill-opacity:1;fill-rule:nonzero;stroke:none;stroke-width:3;marker:none;visibility:visible;display:inline;overflow:visible;enable-background:accumulate" />
      <g
         id="g3136">
        <path
           sodipodi:type="arc"
           style="color:#000000;fill:#ffffff;fill-opacity:1;fill-rule:nonzero;stroke:#000000;stroke-width:3;stroke-linecap:butt;stroke-linejoin:miter;stroke-miterlimit:4;stroke-opacity:1;stroke-dasharray:none;stroke-dashoffset:0;marker:none;visibility:visible;display:inline;overflow:visible;enable-background:accumulate"
           id="path3022-20"
           sodipodi:cx="226.96448"
           sodipodi:cy="472.28772"
           sodipodi:rx="6.3316269"
           sodipodi:ry="6.3316269"
           d="m 233.2961,472.28772 c 0,3.49686 -2.83476,6.33163 -6.33162,6.33163 -3.49686,0 -6.33163,-2.83477 -6.33163,-6.33163 0,-3.49686 2.83477,-6.33163 6.33163,-6.33163 3.49686,0 6.33162,2.83477 6.33162,6.33163 z"
           transform="translate(-205.33767,-444.32929)" />
        <path
           sodipodi:type="arc"
           style="color:#000000;fill:#ffffff;fill-opacity:1;fill-rule:nonzero;stroke:#000000;stroke-width:3;stroke-linecap:butt;stroke-linejoin:miter;stroke-miterlimit:4;stroke-opacity:1;stroke-dasharray:none;stroke-dashoffset:0;marker:none;visibility:visible;display:inline;overflow:visible;enable-background:accumulate"
           id="path3022-1-9"
           sodipodi:cx="226.96448"
           sodipodi:cy="472.28772"
           sodipodi:rx="6.3316269"
           sodipodi:ry="6.3316269"
           d="m 233.2961,472.28772 c 0,3.49686 -2.83476,6.33163 -6.33162,6.33163 -3.49686,0 -6.33163,-2.83477 -6.33163,-6.33163 0,-3.49686 2.83477,-6.33163 6.33163,-6.33163 3.49686,0 6.33162,2.83477 6.33162,6.33163 z"
           transform="translate(-123.46176,-447.73862)" />
        <path
           sodipodi:type="arc"
           style="color:#000000;fill:#ffffff;fill-opacity:1;fill-rule:nonzero;stroke:#000000;stroke-width:3;stroke-linecap:butt;stroke-linejoin:miter;stroke-miterlimit:4;stroke-opacity:1;stroke-dasharray:none;stroke-dashoffset:0;marker:none;visibility:visible;display:inline;overflow:visible;enable-background:accumulate"
           id="path3022-2-8"
           sodipodi:cx="226.96448"
           sodipodi:cy="472.28772"
           sodipodi:rx="6.3316269"
           sodipodi:ry="6.3316269"
           d="m 233.2961,472.28772 c 0,3.49686 -2.83476,6.33163 -6.33162,6.33163 -3.49686,0 -6.33163,-2.83477 -6.33163,-6.33163 0,-3.49686 2.83477,-6.33163 6.33163,-6.33163 3.49686,0 6.33162,2.83477 6.33162,6.33163 z"
           transform="translate(-123.51357,-396.59856)" />
        <path
           sodipodi:type="arc"
           style="color:#000000;fill:#ffffff;fill-opacity:1;fill-rule:nonzero;stroke:#000000;stroke-width:3;stroke-linecap:butt;stroke-linejoin:miter;stroke-miterlimit:4;stroke-opacity:1;stroke-dasharray:none;stroke-dashoffset:0;marker:none;visibility:visible;display:inline;overflow:visible;enable-background:accumulate"
           id="path3022-3-2"
           sodipodi:cx="226.96448"
           sodipodi:cy="472.28772"
           sodipodi:rx="6.3316269"
           sodipodi:ry="6.3316269"
           d="m 233.2961,472.28772 c 0,3.49686 -2.83476,6.33163 -6.33162,6.33163 -3.49686,0 -6.33163,-2.83477 -6.33163,-6.33163 0,-3.49686 2.83477,-6.33163 6.33163,-6.33163 3.49686,0 6.33162,2.83477 6.33162,6.33163 z"
           transform="translate(-112.31145,-410.2359)" />
        <path
           sodipodi:type="arc"
           style="color:#000000;fill:#ffffff;fill-opacity:1;fill-rule:nonzero;stroke:#000000;stroke-width:3;stroke-linecap:butt;stroke-linejoin:miter;stroke-miterlimit:4;stroke-opacity:1;stroke-dasharray:none;stroke-dashoffset:0;marker:none;visibility:visible;display:inline;overflow:visible;enable-background:accumulate"
           id="path3022-7-9"
           sodipodi:cx="226.96448"
           sodipodi:cy="472.28772"
           sodipodi:rx="6.3316269"
           sodipodi:ry="6.3316269"
           d="m 233.2961,472.28772 c 0,3.49686 -2.83476,6.33163 -6.33162,6.33163 -3.49686,0 -6.33163,-2.83477 -6.33163,-6.33163 0,-3.49686 2.83477,-6.33163 6.33163,-6.33163 3.49686,0 6.33162,2.83477 6.33162,6.33163 z"
           transform="translate(-198.03195,-396.11151)" />
        <path
           sodipodi:type="arc"
           style="color:#000000;fill:#ffffff;fill-opacity:1;fill-rule:nonzero;stroke:#000000;stroke-width:3;stroke-linecap:butt;stroke-linejoin:miter;stroke-miterlimit:4;stroke-opacity:1;stroke-dasharray:none;stroke-dashoffset:0;marker:none;visibility:visible;display:inline;overflow:visible;enable-background:accumulate"
           id="path3022-0-6"
           sodipodi:cx="226.96448"
           sodipodi:cy="472.28772"
           sodipodi:rx="6.3316269"
           sodipodi:ry="6.3316269"
           d="m 233.2961,472.28772 c 0,3.49686 -2.83476,6.33163 -6.33162,6.33163 -3.49686,0 -6.33163,-2.83477 -6.33163,-6.33163 0,-3.49686 2.83477,-6.33163 6.33163,-6.33163 3.49686,0 6.33162,2.83477 6.33162,6.33163 z"
           transform="translate(-213.13044,-408.28771)" />
        <path
           sodipodi:type="arc"
           style="color:#000000;fill:#ffffff;fill-opacity:1;fill-rule:nonzero;stroke:#000000;stroke-width:3;stroke-linecap:butt;stroke-linejoin:miter;stroke-miterlimit:4;stroke-opacity:1;stroke-dasharray:none;stroke-dashoffset:0;marker:none;visibility:visible;display:inline;overflow:visible;enable-background:accumulate"
           id="path3022-28-0"
           sodipodi:cx="226.96448"
           sodipodi:cy="472.28772"
           sodipodi:rx="6.3316269"
           sodipodi:ry="6.3316269"
           d="m 233.2961,472.28772 c 0,3.49686 -2.83476,6.33163 -6.33162,6.33163 -3.49686,0 -6.33163,-2.83477 -6.33163,-6.33163 0,-3.49686 2.83477,-6.33163 6.33163,-6.33163 3.49686,0 6.33162,2.83477 6.33162,6.33163 z"
           transform="translate(-174.16658,-443.35518)" />
        <path
           sodipodi:type="arc"
           style="color:#000000;fill:#ffffff;fill-opacity:1;fill-rule:nonzero;stroke:#000000;stroke-width:3;stroke-linecap:butt;stroke-linejoin:miter;stroke-miterlimit:4;stroke-opacity:1;stroke-dasharray:none;stroke-dashoffset:0;marker:none;visibility:visible;display:inline;overflow:visible;enable-background:accumulate"
           id="path3022-77-0"
           sodipodi:cx="226.96448"
           sodipodi:cy="472.28772"
           sodipodi:rx="6.3316269"
           sodipodi:ry="6.3316269"
           d="m 233.2961,472.28772 c 0,3.49686 -2.83476,6.33163 -6.33162,6.33163 -3.49686,0 -6.33163,-2.83477 -6.33163,-6.33163 0,-3.49686 2.83477,-6.33163 6.33163,-6.33163 3.49686,0 6.33162,2.83477 6.33162,6.33163 z"
           transform="translate(-156.63284,-443.84224)" />
      </g>
    </g>
    <path
       sodipodi:type="arc"
       style="color:#000000;fill:#000000;fill-opacity:1;fill-rule:nonzero;stroke:#ffffff;stroke-width:3;stroke-linecap:round;stroke-linejoin:miter;stroke-miterlimit:4;stroke-opacity:1;stroke-dasharray:none;stroke-dashoffset:0;marker:none;visibility:visible;display:inline;overflow:visible;enable-background:accumulate"
       id="path3951"
       sodipodi:cx="84.191879"
       sodipodi:cy="113.06273"
       sodipodi:rx="10.184502"
       sodipodi:ry="10.184502"
       d="m 94.376381,113.06273 a 10.184502,10.184502 0 1 1 -20.369003,0 10.184502,10.184502 0 1 1 20.369003,0 z"
       transform="translate(-7.8081181,-2.3763838)" />
    <path
       sodipodi:type="arc"
       style="color:#000000;fill:#000000;fill-opacity:1;fill-rule:nonzero;stroke:#ffffff;stroke-width:3;stroke-linecap:round;stroke-linejoin:miter;stroke-miterlimit:4;stroke-opacity:1;stroke-dasharray:none;stroke-dashoffset:0;marker:none;visibility:visible;display:inline;overflow:visible;enable-background:accumulate"
       id="path3953"
       sodipodi:cx="90.642067"
       sodipodi:cy="101.18081"
       sodipodi:rx="14.258303"
       sodipodi:ry="14.258303"
       d="m 104.90037,101.18081 a 14.258303,14.258303 0 1 1 -28.516606,0 14.258303,14.258303 0 1 1 28.516606,0 z"
       transform="translate(-10.523985,-9.8450184)" />
    <path
       sodipodi:type="arc"
       style="color:#000000;fill:#000000;fill-opacity:1;fill-rule:nonzero;stroke:#ffffff;stroke-width:3;stroke-linecap:round;stroke-linejoin:miter;stroke-miterlimit:4;stroke-opacity:1;stroke-dasharray:none;stroke-dashoffset:0;marker:none;visibility:visible;display:inline;overflow:visible;enable-background:accumulate"
       id="path3955"
       sodipodi:cx="105.91882"
       sodipodi:cy="107.97048"
       sodipodi:rx="12.900369"
       sodipodi:ry="12.900369"
       d="m 118.81919,107.97048 a 12.900369,12.900369 0 1 1 -25.800735,0 12.900369,12.900369 0 1 1 25.800735,0 z"
       transform="translate(1.3579336,-7.1291512)" />
    <path
       sodipodi:type="arc"
       style="color:#000000;fill:#000000;fill-opacity:1;fill-rule:nonzero;stroke:#ffffff;stroke-width:3;stroke-linecap:round;stroke-linejoin:miter;stroke-miterlimit:4;stroke-opacity:1;stroke-dasharray:none;stroke-dashoffset:0;marker:none;visibility:visible;display:inline;overflow:visible;enable-background:accumulate"
       id="path3957"
       sodipodi:cx="95.734314"
       sodipodi:cy="113.7417"
       sodipodi:rx="9.8450184"
       sodipodi:ry="9.8450184"
       d="m 105.57933,113.7417 a 9.8450184,9.8450184 0 1 1 -19.690034,0 9.8450184,9.8450184 0 1 1 19.690034,0 z"
       transform="translate(-0.33948332,-4.0738011)" />
    <path
       sodipodi:type="arc"
       style="color:#000000;fill:#000000;fill-opacity:1;fill-rule:nonzero;stroke:#ffffff;stroke-width:3;stroke-linecap:round;stroke-linejoin:miter;stroke-miterlimit:4;stroke-opacity:1;stroke-dasharray:none;stroke-dashoffset:0;marker:none;visibility:visible;display:inline;overflow:visible;enable-background:accumulate"
       id="path3959"
       sodipodi:cx="103.54243"
       sodipodi:cy="89.977859"
       sodipodi:rx="9.8450184"
       sodipodi:ry="9.8450184"
       d="m 113.38745,89.977859 a 9.8450184,9.8450184 0 1 1 -19.690041,0 9.8450184,9.8450184 0 1 1 19.690041,0 z"
       transform="translate(-4.7527675,-4.7527676)" />
  </g>
</svg>
