<?xml version="1.0" encoding="UTF-8" standalone="no"?>
<!-- Created with Inkscape (http://www.inkscape.org/) -->

<svg
   xmlns:dc="http://purl.org/dc/elements/1.1/"
   xmlns:cc="http://creativecommons.org/ns#"
   xmlns:rdf="http://www.w3.org/1999/02/22-rdf-syntax-ns#"
   xmlns:svg="http://www.w3.org/2000/svg"
   xmlns="http://www.w3.org/2000/svg"
   xmlns:sodipodi="http://sodipodi.sourceforge.net/DTD/sodipodi-0.dtd"
   xmlns:inkscape="http://www.inkscape.org/namespaces/inkscape"
   width="64"
   height="64"
   id="svg2"
   version="1.1"
   inkscape:version="0.48.4 r9939"
   inkscape:export-filename="/home/kaname/Projects/trem-gpp-bots/assets-data/emoticons/human_1x1.tga.png"
   inkscape:export-xdpi="90"
   inkscape:export-ydpi="90"
   sodipodi:docname="human.svg">
  <defs
     id="defs4" />
  <sodipodi:namedview
     id="base"
     pagecolor="#ffffff"
     bordercolor="#666666"
     borderopacity="1.0"
     inkscape:pageopacity="0.0"
     inkscape:pageshadow="2"
     inkscape:zoom="3.4660633"
     inkscape:cx="31.5"
     inkscape:cy="16.5"
     inkscape:document-units="px"
     inkscape:current-layer="layer1"
     showgrid="false"
     inkscape:window-width="1280"
     inkscape:window-height="1002"
     inkscape:window-x="0"
     inkscape:window-y="0"
     inkscape:window-maximized="1" />
  <metadata
     id="metadata7">
    <rdf:RDF>
      <cc:Work
         rdf:about="">
        <dc:format>image/svg+xml</dc:format>
        <dc:type
           rdf:resource="http://purl.org/dc/dcmitype/StillImage" />
        <dc:title></dc:title>
      </cc:Work>
    </rdf:RDF>
  </metadata>
  <g
     inkscape:label="Layer 1"
     inkscape:groupmode="layer"
     id="layer1"
     transform="translate(0,-988.36218)">
    <rect
       style="color:#000000;fill:#000000;fill-opacity:1;fill-rule:nonzero;stroke:#000000;stroke-width:4.70362234;stroke-linecap:round;stroke-linejoin:miter;stroke-miterlimit:4;stroke-opacity:1;stroke-dasharray:none;stroke-dashoffset:0;marker:none;visibility:visible;display:inline;overflow:visible;enable-background:accumulate"
       id="rect2985"
       width="59.296379"
       height="59.296379"
       x="2.3518112"
       y="990.71399" />
    <g
       id="g4157"
       transform="translate(0.05552475,-0.46605)">
      <path
         sodipodi:nodetypes="cccc"
         inkscape:connector-curvature="0"
         id="path4131"
         d="m 30.776732,999.06256 -6.287207,7.74934 c 0,-1.0647 10.490194,-0.1729 10.34398,0.5099 -0.146214,-0.7311 -4.056773,-8.25924 -4.056773,-8.25924 z"
         style="fill:#ffffff;stroke:none" />
      <path
         inkscape:connector-curvature="0"
         id="path4133"
         d="m 40.675579,1009.2134 c 2.046998,-0.8773 7.456919,-4.8251 7.456919,-4.8251 l -0.146214,8.4804 z"
         style="fill:#ffffff;stroke:none" />
      <path
         inkscape:connector-curvature="0"
         id="path4135"
         d="m 51.296334,1015.2923 7.895562,-3.2167 -3.21671,5.7024 z"
         style="fill:#ffffff;stroke:none" />
      <path
         inkscape:connector-curvature="0"
         id="path4137"
         d="m 57.82634,1019.8126 c 0.731071,-0.1463 3.947781,-1.0235 3.947781,-1.0235 l -1.169713,3.9477 z"
         style="fill:#ffffff;stroke:none" />
      <path
         sodipodi:nodetypes="cccc"
         inkscape:connector-curvature="0"
         id="path4141"
         d="m 40.186735,1033.3635 c 0.584857,0.2924 16.093286,7.7434 16.093286,7.7434 l -6.579634,-8.188 c -5.464488,0.1547 -3.322536,-0.053 -9.513652,0.4446 z"
         style="fill:#ffffff;stroke:none" />
      <path
         sodipodi:nodetypes="cccc"
         inkscape:connector-curvature="0"
         id="path4143"
         d="m 20.554153,1034.3498 c 0.584856,0.5848 16.444505,8.2441 16.444505,8.2441 l -1.567889,-8.7539 z"
         style="fill:#ffffff;stroke:none" />
      <path
         sodipodi:nodetypes="ccsc"
         transform="translate(0,988.36218)"
         inkscape:connector-curvature="0"
         id="path4145"
         d="m 14.036554,43.968668 c -1.841093,-1.642308 -3.796318,-1.91503 -5.4099221,-6.287206 0,0 -8.3342037,6.872063 -7.310705,6.579635 1.0234987,-0.292429 12.7206271,-0.292429 12.7206271,-0.292429 z"
         style="fill:#ffffff;stroke:none" />
      <path
         sodipodi:nodetypes="cscc"
         inkscape:connector-curvature="0"
         id="path4147"
         d="m 3.8636026,1004.0058 c 0.8772846,1.4621 6.4964044,10.362 5.9947784,9.9425 -0.820414,-0.686 1.903224,-7.3104 3.509138,-7.1645 z"
         style="fill:#ffffff;stroke:none" />
      <path
         transform="translate(0,988.36218)"
         d="m 28.950393,31.54047 c 0,6.863905 -4.025931,12.428199 -8.992168,12.428199 -4.966237,0 -8.992167,-5.564294 -8.992167,-12.428199 0,-6.863905 4.02593,-12.428199 8.992167,-12.428199 4.966237,0 8.992168,5.564294 8.992168,12.428199 z"
         sodipodi:ry="12.428199"
         sodipodi:rx="8.9921675"
         sodipodi:cy="31.54047"
         sodipodi:cx="19.958225"
         id="path4149"
         style="color:#000000;fill:#ffffff;fill-opacity:1;fill-rule:nonzero;stroke:none;stroke-width:3;marker:none;visibility:visible;display:inline;overflow:visible;enable-background:accumulate"
         sodipodi:type="arc" />
      <path
         sodipodi:nodetypes="ccsc"
         transform="translate(0,988.36218)"
         inkscape:connector-curvature="0"
         id="path4151"
         d="m 29.096606,21.744125 c 4.929016,8.573058 2.84823,15.687869 0.292428,20.762402 0,0 32.540853,-0.271948 33.044386,-0.877284 3.116736,-3.74687 -26.822521,-25.647762 -33.336814,-19.885118 z"
         style="fill:#ffffff;stroke:none" />
      <path
         inkscape:connector-curvature="0"
         id="path4153"
         d="m 55.910859,1032.3873 4.853697,-0.3733 c 0,0 1.213424,4.8537 0.840063,4.2003 -0.373361,-0.6534 -5.69376,-3.827 -5.69376,-3.827 z"
         style="fill:#ffffff;stroke:none" />
      <path
         transform="translate(-0.56004199,988.45552)"
         d="m 25.388571,31.750916 c 0,5.129269 -2.402919,9.287363 -5.367069,9.287363 -2.964151,0 -5.36707,-4.158094 -5.36707,-9.287363 0,-5.129269 2.402919,-9.287364 5.36707,-9.287364 2.96415,0 5.367069,4.158095 5.367069,9.287364 z"
         sodipodi:ry="9.2873631"
         sodipodi:rx="5.3670692"
         sodipodi:cy="31.750916"
         sodipodi:cx="20.021502"
         id="path4155"
         style="color:#000000;fill:#000000;fill-opacity:1;fill-rule:nonzero;stroke:none;stroke-width:3;marker:none;visibility:visible;display:inline;overflow:visible;enable-background:accumulate"
         sodipodi:type="arc" />
    </g>
  </g>
</svg>
