<?xml version="1.0" encoding="UTF-8" standalone="no"?>
<!-- Created with Inkscape (http://www.inkscape.org/) -->

<svg
   xmlns:dc="http://purl.org/dc/elements/1.1/"
   xmlns:cc="http://creativecommons.org/ns#"
   xmlns:rdf="http://www.w3.org/1999/02/22-rdf-syntax-ns#"
   xmlns:svg="http://www.w3.org/2000/svg"
   xmlns="http://www.w3.org/2000/svg"
   xmlns:sodipodi="http://sodipodi.sourceforge.net/DTD/sodipodi-0.dtd"
   xmlns:inkscape="http://www.inkscape.org/namespaces/inkscape"
   width="64"
   height="64"
   id="svg2"
   version="1.1"
   inkscape:version="0.48.4 r9939"
   inkscape:export-filename="/home/kaname/Projects/trem-gpp-bots/assets-data/emoticons/overmind_1x1.tga.png"
   inkscape:export-xdpi="90"
   inkscape:export-ydpi="90"
   sodipodi:docname="overmind.svg">
  <defs
     id="defs4" />
  <sodipodi:namedview
     id="base"
     pagecolor="#ffffff"
     bordercolor="#666666"
     borderopacity="1.0"
     inkscape:pageopacity="0.0"
     inkscape:pageshadow="2"
     inkscape:zoom="5.1255329"
     inkscape:cx="21.711472"
     inkscape:cy="4.5456865"
     inkscape:document-units="px"
     inkscape:current-layer="layer1"
     showgrid="false"
     inkscape:window-width="1280"
     inkscape:window-height="1002"
     inkscape:window-x="0"
     inkscape:window-y="0"
     inkscape:window-maximized="1" />
  <metadata
     id="metadata7">
    <rdf:RDF>
      <cc:Work
         rdf:about="">
        <dc:format>image/svg+xml</dc:format>
        <dc:type
           rdf:resource="http://purl.org/dc/dcmitype/StillImage" />
        <dc:title></dc:title>
      </cc:Work>
    </rdf:RDF>
  </metadata>
  <g
     inkscape:label="Layer 1"
     inkscape:groupmode="layer"
     id="layer1"
     transform="translate(0,-988.36218)">
    <rect
       style="color:#000000;fill:#000000;fill-opacity:1;fill-rule:nonzero;stroke:#000000;stroke-width:4.70362234;stroke-linecap:round;stroke-linejoin:miter;stroke-miterlimit:4;stroke-opacity:1;stroke-dasharray:none;stroke-dashoffset:0;marker:none;visibility:visible;display:inline;overflow:visible;enable-background:accumulate"
       id="rect2985"
       width="59.296379"
       height="59.296379"
       x="2.3518112"
       y="990.71399" />
    <path
       style="fill:#ffffff;stroke:none"
       d="m 38.63013,1039.6806 15.998337,-13.2669 c 5.982324,-3.1599 -3.088024,21.7133 -5.267745,21.8513 -0.561929,0.036 4.190239,-15.2489 1.755915,-14.4375 l -12.681609,14.8277 z"
       id="path3930"
       inkscape:connector-curvature="0"
       sodipodi:nodetypes="ccsccc" />
    <path
       style="fill:#ffffff;stroke:none"
       d="M 23.607301,20.882532 C 17.052281,17.042456 14.140951,8.8299528 9.9501849,2.1527722 12.179547,12.553858 15.034397,22.433704 23.4122,27.71109 z"
       id="path3952"
       inkscape:connector-curvature="0"
       transform="translate(0,988.36218)"
       sodipodi:nodetypes="cccc" />
    <path
       style="fill:#ffffff;stroke:none"
       d="m 40.97135,1008.952 c 6.55502,-3.84 9.46635,-12.05255 13.657116,-18.7297 -2.229362,10.401 -5.084212,20.2809 -13.462015,25.5583 z"
       id="path3952-9"
       inkscape:connector-curvature="0"
       sodipodi:nodetypes="cccc" />
    <path
       style="fill:#ffffff;stroke:none"
       d="m 26.660643,1039.6241 -15.998337,-13.2669 c -5.9823237,-3.1598 3.088024,21.7133 5.267745,21.8514 0.561929,0.036 -4.190239,-15.249 -1.755915,-14.4375 l 12.681609,14.8277 z"
       id="path3930-8"
       inkscape:connector-curvature="0"
       sodipodi:nodetypes="ccsccc" />
    <path
       style="fill:#ffffff;stroke:none"
       d="m 26.143623,20.492329 c 3.759508,-6.84205 7.697022,-10.185274 12.486507,0 -0.960092,6.983435 1.466909,11.297815 3.51183,16.778743 -2.565446,2.647525 -4.392893,4.181403 -3.706932,10.145286 l -3.706931,1.560814 c -1.326511,3.51183 -0.926903,7.02366 -0.195102,10.53549 l -4.487339,0.195101 c 1.452597,-3.576864 0.93678,-7.153727 -0.195101,-10.730591 L 25.948522,47.61146 c 1.208358,-6.089797 -2.513637,-6.950199 -4.682441,-10.145286 3.908763,-5.242873 6.644912,-10.698948 4.877542,-16.973845 z"
       id="path3990"
       inkscape:connector-curvature="0"
       transform="translate(0,988.36218)"
       sodipodi:nodetypes="ccccccccccc" />
    <path
       sodipodi:type="arc"
       style="color:#000000;fill:#000000;fill-opacity:1;fill-rule:nonzero;stroke:none;stroke-width:3;marker:none;visibility:visible;display:inline;overflow:visible;enable-background:accumulate"
       id="path3992"
       sodipodi:cx="30.533411"
       sodipodi:cy="27.028234"
       sodipodi:rx="2.0485675"
       sodipodi:ry="5.7554989"
       d="m 32.581979,27.028234 a 2.0485675,5.7554989 0 1 1 -4.097136,0 2.0485675,5.7554989 0 1 1 4.097136,0 z"
       transform="translate(-1.3657116,993.33395)" />
    <path
       sodipodi:type="arc"
       style="color:#000000;fill:#000000;fill-opacity:1;fill-rule:nonzero;stroke:none;stroke-width:3;marker:none;visibility:visible;display:inline;overflow:visible;enable-background:accumulate"
       id="path3992-7"
       sodipodi:cx="30.533411"
       sodipodi:cy="27.028234"
       sodipodi:rx="2.0485675"
       sodipodi:ry="5.7554989"
       d="m 32.581979,27.028234 a 2.0485675,5.7554989 0 1 1 -4.097136,0 2.0485675,5.7554989 0 1 1 4.097136,0 z"
       transform="translate(4.3897869,993.33395)" />
  </g>
</svg>
